<?xml version="1.0" encoding="UTF-8" standalone="no"?>
<!-- Created with Inkscape (http://www.inkscape.org/) -->

<svg
   xmlns:dc="http://purl.org/dc/elements/1.1/"
   xmlns:cc="http://creativecommons.org/ns#"
   xmlns:rdf="http://www.w3.org/1999/02/22-rdf-syntax-ns#"
   xmlns:svg="http://www.w3.org/2000/svg"
   xmlns="http://www.w3.org/2000/svg"
   xmlns:sodipodi="http://sodipodi.sourceforge.net/DTD/sodipodi-0.dtd"
   xmlns:inkscape="http://www.inkscape.org/namespaces/inkscape"
   width="163.69077mm"
   height="87.059593mm"
   viewBox="0 0 163.69077 87.059593"
   version="1.1"
   id="svg8"
   inkscape:version="0.92.0 r"
   sodipodi:docname="q1.svg">
  <defs
     id="defs2" />
  <sodipodi:namedview
     id="base"
     pagecolor="#ffffff"
     bordercolor="#666666"
     borderopacity="1.0"
     inkscape:pageopacity="0.0"
     inkscape:pageshadow="2"
     inkscape:zoom="1.5507066"
     inkscape:cx="270.37114"
     inkscape:cy="125.3137"
     inkscape:document-units="mm"
     inkscape:current-layer="layer1"
     showgrid="false"
     fit-margin-top="0"
     fit-margin-left="0"
     fit-margin-right="0"
     fit-margin-bottom="0"
     inkscape:window-width="1920"
     inkscape:window-height="1059"
     inkscape:window-x="0"
     inkscape:window-y="21"
     inkscape:window-maximized="0" />
  <metadata
     id="metadata5">
    <rdf:RDF>
      <cc:Work
         rdf:about="">
        <dc:format>image/svg+xml</dc:format>
        <dc:type
           rdf:resource="http://purl.org/dc/dcmitype/StillImage" />
        <dc:title></dc:title>
      </cc:Work>
    </rdf:RDF>
  </metadata>
  <g
     inkscape:label="Layer 1"
     inkscape:groupmode="layer"
     id="layer1"
     transform="translate(-19.184421,-20.198751)">
    <path
       style="fill:#000000;stroke-width:0.15233073"
       d="m 95.840403,105.87922 c -0.549818,-0.23916 -0.917208,-0.72651 -1.050647,-1.3937 -0.111826,-0.55913 0.267211,-0.97448 0.662024,-0.72544 0.382998,0.24159 0.384196,0.45935 0.0046,0.81519 l -0.350918,0.32886 0.497478,0.44635 c 0.558805,0.50137 0.914681,0.55104 1.559456,0.21761 0.680839,-0.35208 0.9463,-1.61204 0.601335,-2.85417 -0.26355,-0.94898 -1.148494,-1.16708 -1.961096,-0.48332 l -0.46868,0.39437 v -1.75472 -1.754713 l 0.49407,0.1417 c 0.649559,0.18629 1.518192,0.17992 2.030599,-0.0149 0.585152,-0.22248 0.670724,-0.0323 0.176769,0.39282 -0.508158,0.437393 -1.480297,0.722423 -2.010241,0.589413 -0.381617,-0.0958 -0.38654,-0.0854 -0.38654,0.81566 v 0.91269 l 0.590748,-0.20353 c 1.140751,-0.39302 2.114998,0.1919 2.461223,1.47769 0.31326,1.16336 -0.381242,2.393 -1.539121,2.72507 -0.653756,0.1875 -0.720783,0.18376 -1.310938,-0.0729 z m -22.137535,-2.9916 c -1.827521,-0.3569 -3.874383,-1.98876 -4.667497,-3.721153 -0.815241,-1.78072 -0.83149,-4.03357 -0.04028,-5.58447 0.221975,-0.43511 0.266001,-0.65409 0.146373,-0.72802 -0.0941,-0.0582 -1.645087,-0.50502 -3.446639,-0.99303 -1.801551,-0.48801 -3.314094,-0.94966 -3.361208,-1.02589 -0.04711,-0.0762 0.165073,-0.51623 0.471522,-0.97777 0.306452,-0.46155 0.535995,-0.90274 0.510099,-0.98043 -0.0259,-0.0777 -7.123633,-4.85889 -15.772751,-10.62489 l -15.725669,-10.48365 -0.849995,0.82329 c -0.493693,0.47818 -1.276933,1.02554 -1.868501,1.3058 -0.960798,0.45518 -1.118209,0.48252 -2.778209,0.48252 -1.724371,0 -1.782762,-0.0114 -2.908075,-0.56756 -4.151422,-2.05174 -5.058846,-7.39108 -1.809606,-10.64782 1.346797,-1.3499 2.816046,-1.95597 4.750092,-1.95942 1.834334,-0.003 3.80534,0.86259 4.915238,2.15926 l 0.514515,0.60109 15.849049,-10.56633 15.849046,-10.56633 -0.625123,-0.95124 c -0.359849,-0.54758 -0.56647,-1.00419 -0.486905,-1.07602 0.07602,-0.0686 1.612017,-0.52074 3.413328,-1.00471 1.801311,-0.48396 3.32758,-0.92635 3.391709,-0.98309 0.06413,-0.0567 0.0052,-0.32649 -0.130988,-0.59946 -0.667133,-1.3373 -0.831035,-2.99481 -0.443328,-4.48331 0.327091,-1.25579 0.763037,-2.02728 1.701533,-3.0112 2.536741,-2.65951 6.698646,-2.73011 9.389314,-0.15929 1.064711,1.01729 1.737726,2.36485 2.007226,4.01903 l 0.09307,0.57124 h 14.08369 14.083682 v -1.14249 c 0,-0.99308 0.0354,-1.14247 0.27066,-1.14247 0.14887,0 1.70651,0.47984 3.46144,1.06631 1.75494,0.58648 3.23513,1.06632 3.2893,1.06632 0.0542,0 0.17671,-0.39416 0.27227,-0.87591 0.25914,-1.30624 0.82581,-2.38645 1.77268,-3.37915 3.76976,-3.9522 10.36389,-1.92334 11.34551,3.49074 0.15908,0.87742 0.10949,2.28323 -0.0998,2.82859 -0.0501,0.13063 4.38735,1.67421 14.44728,5.02547 7.9858,2.66032 14.59121,4.86303 14.67869,4.89492 0.0875,0.0319 0.31422,-0.42377 0.50386,-1.01259 0.18965,-0.58882 0.41131,-1.07058 0.4926,-1.07058 0.0813,0 1.36262,0.91226 2.84741,2.02726 1.4848,1.11498 2.78287,2.0772 2.88462,2.13827 0.12166,0.073 0.31539,-0.14632 0.56587,-0.64061 1.02396,-2.0207 3.49067,-3.51766 5.80544,-3.52311 4.03682,-0.01 7.28391,3.72289 6.63854,7.63072 -0.2416,1.46298 -0.78105,2.58436 -1.72164,3.57891 -1.15415,1.22033 -2.32697,1.82175 -4.12324,2.11441 l -0.57124,0.0931 v 6.01016 6.01016 h 1.21864 c 0.67026,0 1.21865,0.0188 1.21865,0.0419 0,0.023 -0.5122,1.57505 -1.1382,3.44891 -0.62602,1.87386 -1.10181,3.46591 -1.05733,3.53788 0.0445,0.072 0.27027,0.13087 0.50175,0.13087 0.62518,0 1.82122,0.44076 2.68858,0.99079 2.1874,1.38714 3.42604,4.1434 2.98667,6.6461 -0.94382,5.37609 -7.45743,7.47091 -11.29034,3.63104 -0.46245,-0.46329 -1.00148,-1.16915 -1.19785,-1.56858 l -0.35702,-0.72622 -0.4808,0.36217 c -3.67404,2.76755 -5.25849,3.91747 -5.39781,3.91747 -0.0927,0 -0.32365,-0.48176 -0.5133,-1.07058 -0.18964,-0.58882 -0.41637,-1.04449 -0.50386,-1.01259 -0.0875,0.0319 -6.69289,2.23461 -14.67869,4.89492 -10.05993,3.35127 -14.49741,4.89484 -14.44728,5.02547 0.20715,0.53982 0.25904,1.95022 0.10334,2.80883 -0.26009,1.43433 -0.7996,2.50618 -1.77753,3.531433 -1.03929,1.08959 -2.26524,1.72679 -3.81452,1.98265 -3.44126,0.56831 -6.83589,-1.84892 -7.52655,-5.359483 -0.0973,-0.49453 -0.18683,-0.89915 -0.19897,-0.89915 -0.0121,0 -1.55523,0.51219 -3.42909,1.1382 -1.87386,0.62601 -3.46591,1.10181 -3.53788,1.05732 -0.072,-0.0445 -0.13087,-0.59094 -0.13087,-1.21437 v -1.13349 H 95.873888 81.790202 l -0.09307,0.57125 c -0.29265,1.79626 -0.894081,2.969093 -2.11441,4.123233 -1.564282,1.47944 -3.7445,2.10552 -5.879858,1.6885 z m 4.045381,-0.89194 c 1.272977,-0.62668 2.349074,-1.70984 2.988148,-3.007763 0.476905,-0.96856 0.506842,-1.12403 0.506842,-2.63221 0,-1.48656 -0.03529,-1.67736 -0.486412,-2.62969 -1.359101,-2.86907 -4.564071,-4.27366 -7.613226,-3.3365 -1.90179,0.58451 -3.448041,2.13077 -4.032557,4.03256 -0.690674,2.24719 -0.099,4.71813 1.516638,6.333773 0.781918,0.78192 1.906393,1.43937 2.884151,1.68629 0.314525,0.0794 1.173512,0.12119 1.908859,0.0928 1.134851,-0.0438 1.486768,-0.12534 2.327557,-0.53926 z m -3.686933,-3.651843 c -1.725377,-1.05207 -0.219961,-4.27648 1.996609,-4.27648 0.56191,0 1.14855,0.42237 1.14855,0.82694 0,0.28719 -0.446021,0.72521 -0.665087,0.65315 -0.336098,-0.11055 -0.289169,-0.71336 0.06575,-0.84465 0.322376,-0.11925 0.316598,-0.1324 -0.141612,-0.3222 -0.995774,-0.41246 -1.815798,0.3196 -2.261492,2.01891 -0.294393,1.12244 -0.161283,1.69018 0.449658,1.91789 0.481855,0.1796 1.583708,-0.17966 2.116469,-0.69008 0.23997,-0.22991 0.436309,-0.34859 0.436309,-0.26374 0,0.24945 -0.6454,0.78368 -1.253915,1.03794 -0.750508,0.31358 -1.31039,0.2965 -1.891244,-0.0577 z m 52.432764,3.651843 c 1.27297,-0.62668 2.34907,-1.70984 2.98815,-3.007763 0.4769,-0.96856 0.50684,-1.12403 0.50684,-2.63221 0,-1.48656 -0.0353,-1.67736 -0.48641,-2.62969 -1.3591,-2.86907 -4.56407,-4.27366 -7.61323,-3.3365 -1.90179,0.58451 -3.44804,2.13077 -4.03255,4.03256 -0.69068,2.24719 -0.099,4.71813 1.51663,6.333773 0.78193,0.78192 1.9064,1.43937 2.88416,1.68629 0.31452,0.0794 1.17351,0.12119 1.90886,0.0928 1.13485,-0.0438 1.48676,-0.12534 2.32755,-0.53926 z m -4.95241,-1.29355 c -0.2591,-0.3122 -0.13666,-0.909043 0.19964,-0.973183 0.46022,-0.0878 0.65075,0.22575 0.34351,0.565253 -0.37335,0.41255 -0.006,0.60858 0.39297,0.20967 0.22345,-0.22346 0.43942,-0.994513 0.82245,-2.936433 0.28569,-1.44838 0.51944,-2.65704 0.51944,-2.68592 0,-0.0289 -0.20565,-0.0525 -0.45699,-0.0525 -0.6102,0 -0.58691,-0.27259 0.0284,-0.3331 0.46146,-0.0454 0.49569,-0.094 0.69284,-0.98549 0.2482,-1.12224 0.7366,-1.72803 1.39318,-1.72803 0.39107,0 0.93214,0.32161 0.93214,0.55405 0,0.27108 -0.36397,0.6646 -0.61468,0.6646 -0.31824,0 -0.42798,-0.51182 -0.14697,-0.68549 0.21463,-0.13266 0.18962,-0.38129 -0.0381,-0.3785 -0.41411,0.005 -0.60937,0.30298 -0.80909,1.23439 -0.29112,1.35767 -0.29223,1.3529 0.31401,1.3529 0.29325,0 0.53317,0.0685 0.53317,0.15233 0,0.0838 -0.26218,0.15234 -0.58261,0.15234 h -0.5826 l -0.33912,1.82639 c -0.46324,2.49484 -0.73254,3.32819 -1.23925,3.834903 -0.46903,0.46903 -1.07122,0.56266 -1.36239,0.21182 z m -11.58409,-5.635633 c 0,-0.62342 0.0589,-1.16989 0.13086,-1.21437 0.072,-0.0445 1.66403,0.43132 3.53789,1.05733 1.87386,0.62601 3.41695,1.1382 3.42909,1.1382 0.0122,0 0.10582,-0.4257 0.20818,-0.94599 0.52556,-2.67136 2.56343,-4.72697 5.26127,-5.30708 0.50269,-0.10809 0.93011,-0.20674 0.94984,-0.21922 0.0197,-0.0125 -0.47534,-1.55286 -1.10012,-3.42306 -0.62479,-1.8702 -1.09959,-3.45925 -1.0551,-3.53122 0.0445,-0.072 0.59175,-0.13086 1.21613,-0.13086 h 1.13526 l -0.0398,-5.97692 -0.0398,-5.97692 -0.83782,-0.11668 c -0.4608,-0.0642 -1.32386,-0.35477 -1.91792,-0.64578 -1.78146,-0.87268 -3.03943,-2.4598 -3.51457,-4.43414 -0.13938,-0.5792 -0.27223,-1.07736 -0.29521,-1.10702 -0.023,-0.0297 -1.52216,0.43951 -3.3315,1.04259 -1.80934,0.60308 -3.39026,1.05793 -3.51315,1.01078 -0.16704,-0.0641 -0.22343,-0.35607 -0.22343,-1.15684 v -1.0711 H 95.873888 81.790202 l -0.09589,0.57125 c -0.510574,3.04144 -2.82307,5.45542 -5.533603,5.77644 -0.430209,0.051 -0.782198,0.13622 -0.782198,0.18948 0,0.0533 0.507392,1.61563 1.12754,3.47194 0.620146,1.85631 1.088563,3.41408 1.040926,3.46172 -0.04764,0.0476 -0.589304,0.0866 -1.203705,0.0866 h -1.117097 v 5.99018 5.99017 l 0.952067,0.17706 c 2.787458,0.51838 4.978992,2.71445 5.463575,5.47487 l 0.167133,0.95207 H 95.883267 109.95758 Z M 77.511136,84.924857 c 0,-0.0904 0.592844,-0.82941 1.31743,-1.64224 0.724586,-0.81284 1.410075,-1.69847 1.523307,-1.96807 0.327651,-0.78011 0.264362,-1.78596 -0.142105,-2.25851 -0.478093,-0.55581 -1.359901,-0.56341 -1.906881,-0.0164 l -0.38812,0.38812 0.369425,0.30306 c 0.300987,0.24691 0.338323,0.35421 0.201537,0.57918 -0.09234,0.15187 -0.312699,0.29771 -0.489691,0.3241 -0.762329,0.11364 -0.495137,-1.48662 0.339533,-2.03352 0.484146,-0.31722 1.593855,-0.31967 2.202618,-0.005 0.913662,0.47247 1.214425,1.80464 0.623354,2.76102 -0.170607,0.27605 -0.856095,0.99402 -1.523307,1.59551 -0.667214,0.60148 -1.213115,1.1549 -1.213115,1.2298 0,0.14963 1.86145,0.18436 2.382867,0.0445 0.208434,-0.0559 0.367034,-0.26163 0.438834,-0.56917 0.1617,-0.69261 0.249717,-0.15334 0.107865,0.6609 l -0.119419,0.6855 -1.862067,0.0428 c -1.257151,0.0289 -1.862065,-0.0106 -1.862065,-0.1216 z m 21.553211,-13.44973 c -0.288681,-0.28868 -0.58214,-0.79341 -0.686412,-1.18056 -0.257735,-0.95698 -0.130894,-3.43006 0.208866,-4.07239 0.343791,-0.64996 1.088404,-1.09637 1.829949,-1.09709 0.47835,-4.6e-4 0.69634,0.10688 1.15901,0.57067 0.48376,0.48494 0.59774,0.73205 0.75449,1.63565 0.10864,0.62625 0.14144,1.44142 0.0797,1.9803 -0.21727,1.89615 -0.83215,2.66769 -2.12603,2.66769 -0.606561,0 -0.791943,-0.0767 -1.219567,-0.50427 z m 1.865903,0.11896 c 0.18295,-0.12815 0.40347,-0.48803 0.49004,-0.79974 0.24341,-0.87643 0.20132,-4.05525 -0.062,-4.68554 -0.42153,-1.00887 -1.666214,-1.02028 -2.088846,-0.0192 -0.225252,0.53358 -0.287823,3.9884 -0.08536,4.71306 0.255161,0.91327 1.054786,1.27566 1.746196,0.79138 z m -7.703658,0.0888 c 0.02792,-0.0793 0.536064,-0.67912 1.129195,-1.33289 1.37252,-1.51285 1.856025,-2.25376 1.968611,-3.01666 0.231602,-1.56931 -1.336905,-2.51187 -2.357326,-1.41657 -0.388865,0.4174 -0.387552,0.52265 0.0078,0.62605 0.485733,0.12702 0.338885,0.77636 -0.189389,0.83746 -1.162201,0.13443 -0.311595,-1.96929 0.88719,-2.19419 1.692025,-0.31742 3.044705,1.11569 2.433587,2.5783 -0.120248,0.28779 -0.859577,1.14694 -1.642955,1.90923 l -1.424319,1.38598 1.346128,0.003 1.346122,0.003 0.172497,-0.45699 c 0.251431,-0.66612 0.389141,-0.55874 0.244211,0.19042 -0.06888,0.35607 -0.128229,0.73309 -0.131873,0.83782 -0.0052,0.14189 -0.495095,0.19041 -1.923467,0.19041 -1.140134,0 -1.896251,-0.0584 -1.866048,-0.14421 z m 66.059128,12.56079 c 0.0475,-0.0475 -0.0614,-0.54086 -0.24204,-1.09638 -0.18061,-0.55552 -0.29274,-1.06771 -0.24917,-1.1382 0.0436,-0.0705 1.71555,-0.12817 3.71553,-0.12817 h 3.63631 l -0.1417,-0.49407 c -0.32634,-1.1379 -0.0465,-3.07412 0.63829,-4.41645 0.8364,-1.63948 2.9394,-3.16959 4.71819,-3.4329 0.70353,-0.10413 0.81593,-0.1655 0.7713,-0.42108 -0.0434,-0.24854 -1.88759,-5.98644 -2.1136,-6.57616 -0.0504,-0.13165 0.26828,-0.19645 1.12388,-0.2285 l 1.1943,-0.0447 0.0398,-5.9624 0.0398,-5.96239 -0.92835,-0.16353 c -1.94136,-0.34196 -3.78381,-1.63702 -4.74486,-3.33516 -0.24893,-0.43986 -0.48224,-0.79974 -0.51847,-0.79974 -0.0362,0 -1.29978,0.9283 -2.80789,2.0629 -1.50811,1.13459 -2.83579,2.09888 -2.95038,2.14286 -0.14686,0.0564 -0.30908,-0.22661 -0.54952,-0.95851 -0.18763,-0.57115 -0.36184,-1.06273 -0.38712,-1.0924 -0.0568,-0.0667 -29.04501,9.57582 -29.18475,9.7079 -0.0554,0.0523 -0.0298,0.49919 0.057,0.99294 0.3396,1.93309 -0.55227,4.45945 -2.05322,5.81613 -0.95942,0.86719 -2.3237,1.53714 -3.4631,1.7006 l -0.83782,0.12019 -0.0398,5.97692 -0.0398,5.97692 h 1.13525 c 0.62439,0 1.17165,0.0589 1.21614,0.13086 0.0445,0.072 -0.43132,1.66402 -1.05732,3.53788 -0.62602,1.87386 -1.13821,3.41695 -1.13821,3.42909 0,0.0122 0.40462,0.10168 0.89916,0.19897 1.93358,0.38041 3.79157,1.74298 4.67343,3.42732 l 0.42392,0.80968 14.53926,-4.84702 c 7.9966,-2.66586 14.57812,-4.88587 14.62561,-4.93336 z m -31.98547,-3.35597 c -1.08352,-0.58857 -1.51859,-3.4449 -0.76006,-4.9899 0.6856,-1.39642 2.20531,-2.0434 3.11455,-1.32593 0.56173,0.44325 0.5346,1.13966 -0.0444,1.13966 -0.47308,0 -0.60061,-0.47188 -0.20589,-0.76178 0.26244,-0.19274 0.25136,-0.21677 -0.17703,-0.38388 -0.38238,-0.14916 -0.54404,-0.13236 -0.99015,0.10287 -0.61837,0.32606 -0.99855,1.02164 -1.15278,2.1091 l -0.10802,0.76166 0.42268,-0.41892 c 1.23264,-1.22164 3.23374,0.36851 2.87831,2.28722 -0.0668,0.36056 -0.3137,0.77824 -0.67404,1.14023 -0.48731,0.48952 -0.66383,0.57037 -1.23398,0.56514 -0.36593,-0.003 -0.84706,-0.10482 -1.06918,-0.22547 z m 1.64608,-0.28323 c 0.36967,-0.31798 0.42839,-0.49089 0.4785,-1.40905 0.066,-1.20973 -0.10346,-1.76593 -0.6465,-2.12174 -0.91605,-0.60022 -1.67677,0.20337 -1.68091,1.77565 -0.003,1.09146 0.22543,1.69109 0.73839,1.93947 0.49081,0.23767 0.65079,0.21111 1.11052,-0.18433 z m 33.56535,-15.82267 c 0,-0.0628 0.1416,-0.11425 0.31467,-0.11425 0.17308,0 0.44727,-0.071 0.60932,-0.15769 0.27443,-0.14687 0.29466,-0.34442 0.29466,-2.87824 v -2.72056 l -0.57125,0.13266 c -0.73311,0.17024 -0.79973,0.16979 -0.79973,-0.006 0,-0.08 0.25706,-0.1905 0.57124,-0.24559 0.31418,-0.0551 0.72306,-0.1953 0.90863,-0.31157 0.18556,-0.11626 0.40834,-0.21139 0.49507,-0.21139 0.10357,0 0.15769,1.07116 0.15769,3.12098 v 3.12098 l 0.60932,0.0974 c 1.06412,0.17016 0.66103,0.28699 -0.99015,0.28699 -0.87971,0 -1.59947,-0.0514 -1.59947,-0.11425 z m 4.56992,0.0276 c 0,-0.0896 0.54446,-0.77008 1.20993,-1.51228 1.3622,-1.51929 1.83669,-2.32654 1.83669,-3.12479 0,-1.51364 -1.40121,-2.20808 -2.34381,-1.16162 -0.28278,0.31393 -0.28157,0.32373 0.0762,0.61726 0.29639,0.24319 0.33231,0.34926 0.19457,0.57439 -0.0929,0.15187 -0.33282,0.27612 -0.53315,0.27612 -0.73798,0 -0.44198,-1.4443 0.41046,-2.00284 0.48616,-0.31855 1.5466,-0.31315 2.17355,0.0111 0.91087,0.47102 1.21815,1.80429 0.63378,2.74981 -0.16633,0.26913 -0.85182,0.98541 -1.52331,1.59173 -0.67149,0.60632 -1.22089,1.16539 -1.22089,1.24237 0,0.15861 1.5442,0.18912 2.26593,0.0448 0.36871,-0.0738 0.47603,-0.17474 0.47603,-0.44801 0,-0.19403 0.0762,-0.39988 0.1693,-0.45743 0.12115,-0.0749 0.13786,0.12837 0.0587,0.71458 -0.0608,0.45057 -0.14104,0.87063 -0.17829,0.93347 -0.11035,0.18609 -3.7057,0.13895 -3.7057,-0.0486 z m -95.087397,25.61875 c 0.51055,-0.25773 1.378057,-0.55392 1.927791,-0.6582 l 0.99952,-0.18961 v -5.98233 -5.98232 h -1.218646 c -0.670255,0 -1.218646,-0.0531 -1.218646,-0.11805 0,-0.0649 0.514116,-1.65698 1.14248,-3.53789 0.628365,-1.8809 1.142481,-3.42913 1.142481,-3.44049 0,-0.0113 -0.359881,-0.063 -0.799736,-0.11464 -0.439855,-0.0517 -1.285784,-0.33376 -1.879842,-0.62686 -1.783566,-0.87996 -3.040186,-2.46672 -3.514565,-4.43792 -0.139388,-0.5792 -0.272234,-1.07736 -0.295215,-1.10702 -0.02298,-0.0297 -1.522152,0.43951 -3.331496,1.04259 -1.809343,0.60308 -3.39026,1.05793 -3.513148,1.01078 -0.167043,-0.0641 -0.223433,-0.35607 -0.223433,-1.15684 v -1.0711 H 47.128058 33.044369 l -0.0959,0.57125 c -0.134721,0.80252 -0.370131,1.54599 -0.693015,2.18868 l -0.276885,0.55113 15.797905,10.53093 c 8.688848,5.79202 15.841828,10.53094 15.895518,10.53094 0.05369,0 0.314172,-0.33748 0.578854,-0.74995 0.831387,-1.29561 0.653601,-1.39776 3.134217,1.80081 l 2.24245,2.89146 0.719206,-0.73838 c 0.395564,-0.40611 1.136928,-0.94925 1.64748,-1.20697 z m 102.475437,-4.38132 c 2.41747,-0.73095 4.16183,-2.97685 4.31079,-5.55024 0.30986,-5.35264 -5.66058,-8.59819 -9.97056,-5.42004 -0.96284,0.70998 -1.52112,1.42095 -2.05365,2.61525 -0.471,1.05631 -0.57125,3.08663 -0.2079,4.21035 1.10024,3.40276 4.49703,5.18006 7.92132,4.14468 z m -2.90921,-3.1772 c -0.23601,-0.36018 -0.22742,-0.47423 0.14881,-1.97566 0.2196,-0.87639 0.39927,-1.62979 0.39927,-1.67423 0,-0.0444 -0.23992,-0.0808 -0.53315,-0.0808 -0.29324,0 -0.53316,-0.0685 -0.53316,-0.15233 0,-0.0838 0.26927,-0.15234 0.5984,-0.15234 h 0.5984 l 0.1879,-0.83961 c 0.19508,-0.87175 0.49981,-1.2974 0.74983,-1.04738 0.0869,0.0869 0.0557,0.46292 -0.0808,0.97608 -0.12217,0.45912 -0.22295,0.85189 -0.22394,0.87283 -0.002,0.021 0.27239,0.0381 0.60751,0.0381 0.33513,0 0.60932,0.0685 0.60932,0.15234 0,0.0838 -0.29532,0.15232 -0.65628,0.15232 h -0.65629 l -0.43947,1.82899 c -0.33475,1.39309 -0.39714,1.87132 -0.26183,2.00663 0.26692,0.26693 0.86964,-0.0639 1.28526,-0.70538 0.38403,-0.59279 0.68955,-0.73998 0.4107,-0.19787 -0.59964,1.16572 -1.70757,1.56586 -2.21047,0.79833 z M 27.577242,69.980157 c 1.108991,-0.23531 2.157052,-0.7918 3.031259,-1.60951 3.793229,-3.54812 1.833746,-9.81822 -3.353884,-10.732 -2.563457,-0.45155 -5.394387,1.05255 -6.603419,3.50844 -0.464899,0.94435 -0.492581,1.09492 -0.492581,2.67941 0,1.50702 0.04224,1.76898 0.412659,2.55951 1.258281,2.6853 4.193209,4.19095 7.005966,3.59415 z m -2.312277,-3.98663 c -0.662114,-0.22931 -0.962087,-0.88946 -0.578486,-1.27306 0.279899,-0.2799 0.727548,-0.17812 0.727548,0.16542 0,0.12535 -0.149451,0.3079 -0.332115,0.40566 -0.320946,0.17176 -0.322528,0.18474 -0.04705,0.38618 0.484429,0.35422 1.555101,0.265 1.985562,-0.16546 0.681928,-0.68193 0.362389,-1.28356 -0.811822,-1.52851 -0.987667,-0.20604 -1.196815,-1.2128 -0.414477,-1.99514 0.473119,-0.47312 1.714774,-0.52558 2.10975,-0.0891 0.318679,0.35213 0.325987,0.92128 0.01337,1.04124 -0.409284,0.15706 -0.614807,-0.20414 -0.308651,-0.54244 0.256612,-0.28355 0.254942,-0.30313 -0.03928,-0.46059 -0.478931,-0.25632 -1.058941,-0.19448 -1.402997,0.14957 -0.502474,0.50248 -0.331647,0.9434 0.468516,1.20928 0.894161,0.29712 1.053697,0.40964 1.226972,0.86539 0.105297,0.27695 0.07677,0.52053 -0.106103,0.9059 -0.398919,0.84066 -1.526377,1.25968 -2.490733,0.92569 z m 51.05811,3.98663 c 1.108992,-0.23531 2.157052,-0.7918 3.031258,-1.60951 3.793231,-3.54812 1.833747,-9.81822 -3.353884,-10.732 -2.563456,-0.45155 -5.394386,1.05255 -6.603418,3.50844 -0.4649,0.94435 -0.492581,1.09492 -0.492581,2.67941 0,1.50702 0.04224,1.76898 0.412659,2.55951 1.258281,2.6853 4.19321,4.19095 7.005966,3.59415 z m -2.280668,-2.67263 c -0.293969,-0.11828 -0.644201,-0.89112 -0.644201,-1.42154 0,-0.25977 0.243358,-1.43866 0.540794,-2.61976 0.297437,-1.1811 0.505234,-2.24012 0.461773,-2.35338 -0.04346,-0.11325 -0.222315,-0.20592 -0.397453,-0.20592 -0.175137,0 -0.276067,-0.0686 -0.224286,-0.15233 0.128207,-0.20745 1.447141,-0.19587 1.447141,0.0127 0,0.0908 -0.140584,0.71565 -0.312409,1.38862 -0.171824,0.67297 -0.285775,1.25022 -0.253224,1.28277 0.03255,0.0325 0.271006,-0.0465 0.529897,-0.17564 0.550852,-0.2748 1.111289,-0.1771 1.509749,0.26319 0.20614,0.22779 0.27779,0.55127 0.27779,1.25416 0,0.78159 -0.07431,1.05948 -0.425005,1.58943 -0.661828,1.00008 -1.692143,1.46699 -2.510566,1.13769 z m 1.334473,-0.48231 c 0.665299,-0.6653 1.134871,-2.6277 0.823147,-3.44004 -0.160099,-0.41722 -0.870396,-0.28689 -1.384992,0.25412 -0.72104,0.75804 -1.076247,2.87035 -0.568128,3.37848 0.346604,0.3466 0.640978,0.29643 1.129973,-0.19256 z m 49.69203,3.15494 c 1.10898,-0.23531 2.15705,-0.7918 3.03125,-1.60951 3.79323,-3.54812 1.83375,-9.81822 -3.35387,-10.732 -2.56346,-0.45155 -5.3944,1.05255 -6.60342,3.50844 -0.46491,0.94435 -0.49259,1.09492 -0.49259,2.67941 0,1.50702 0.0423,1.76898 0.41266,2.55951 1.25828,2.6853 4.19321,4.19095 7.00597,3.59415 z m -1.9676,-3.90221 c -0.18565,-0.0326 -0.51126,-0.26572 -0.72358,-0.51804 -0.301,-0.35772 -0.38602,-0.62726 -0.38602,-1.22379 0,-1.49564 0.90061,-2.54776 2.29561,-2.68181 1.24823,-0.11993 1.73572,0.57951 1.00002,1.43481 -0.31161,0.36226 -0.49835,0.42767 -1.38175,0.48392 -0.93542,0.0596 -1.03442,0.0988 -1.17532,0.46551 -0.17553,0.45687 -0.0775,1.31441 0.1867,1.63272 0.36811,0.44354 1.74597,0.1333 2.42536,-0.54609 0.18189,-0.18189 0.36613,-0.29528 0.40943,-0.25198 0.14166,0.14166 -0.10884,0.39376 -0.75939,0.76422 -0.67659,0.38529 -1.3338,0.53839 -1.89106,0.44053 z m 1.46051,-2.79742 c 0.45158,-0.15742 0.78117,-0.52747 0.78117,-0.87707 0,-0.27864 -0.47471,-0.63022 -0.85094,-0.63022 -0.43043,0 -1.36282,0.82375 -1.50869,1.3329 -0.0899,0.31382 -0.0478,0.34274 0.49866,0.34274 0.32827,0 0.81418,-0.0758 1.0798,-0.16835 z m -63.350072,-0.75041 c 0,-0.71647 0.06304,-1.09522 0.190414,-1.14396 0.104727,-0.0401 1.705135,0.43326 3.556462,1.05186 l 3.366049,1.12472 0.163299,-0.87809 c 0.245653,-1.32093 0.898746,-2.55634 1.861582,-3.52139 1.011275,-1.01361 2.016691,-1.55932 3.362955,-1.82531 0.53928,-0.10656 0.996645,-0.20228 1.016366,-0.21273 0.01973,-0.0105 -0.475333,-1.54916 -1.100119,-3.41936 -0.624787,-1.8702 -1.099583,-3.45925 -1.055101,-3.53122 0.04448,-0.072 0.590949,-0.13086 1.214369,-0.13086 h 1.13349 v -5.98613 -5.98612 l -0.961973,-0.16478 c -1.302912,-0.22318 -2.594561,-0.88266 -3.54721,-1.81111 l -0.791637,-0.77153 -2.23764,2.86608 c -1.230702,1.57634 -2.282992,2.86547 -2.338421,2.86474 -0.05543,-5.8e-4 -0.365386,-0.41203 -0.688792,-0.91398 -0.323405,-0.50196 -0.631536,-0.91265 -0.684734,-0.91265 -0.0532,0 -7.205781,4.73892 -15.894629,10.53092 l -15.797905,10.53093 0.276886,0.55113 c 0.322883,0.6427 0.558294,1.38617 0.693015,2.18869 l 0.0959,0.57124 h 14.083688 14.08369 z m -9.139843,0.014 c 0,-0.0787 0.257058,-0.16441 0.57124,-0.19041 l 0.57124,-0.0473 0.04153,-2.78239 0.04153,-2.78239 -0.612768,0.098 c -0.411175,0.0657 -0.612769,0.0414 -0.612769,-0.0738 0,-0.0945 0.156878,-0.1718 0.348618,-0.1718 0.19174,0 0.617526,-0.13711 0.946193,-0.30467 0.328667,-0.16756 0.615966,-0.30466 0.638442,-0.30466 0.02248,0 0.05939,1.42239 0.08204,3.16086 l 0.04117,3.16087 0.57124,0.0473 c 0.314182,0.026 0.571241,0.11169 0.571241,0.19042 0,0.0802 -0.703216,0.14313 -1.599473,0.14313 -0.896258,0 -1.599473,-0.0629 -1.599473,-0.14313 z m 57.885675,-0.014 c 0,-0.71647 0.063,-1.09522 0.19041,-1.14396 0.10473,-0.0401 1.70895,0.43454 3.56494,1.05469 l 3.37452,1.12755 0.10568,-0.70717 c 0.0581,-0.38894 0.27033,-1.11285 0.47157,-1.6087 0.20125,-0.49585 0.34888,-0.91226 0.32807,-0.92536 -0.0208,-0.0131 -1.27171,-0.35496 -2.77978,-0.75968 -3.94273,-1.05814 -4.18989,-1.13745 -4.18167,-1.34184 0.004,-0.10148 0.26992,-0.56135 0.59074,-1.02194 l 0.58332,-0.83744 -15.828032,-10.55232 -15.828033,-10.55233 -0.782788,0.78279 c -0.927699,0.9277 -2.539247,1.75032 -3.717294,1.89751 l -0.823058,0.10283 v 5.99952 5.99951 h 1.117092 c 0.614401,0 1.156068,0.039 1.203705,0.0866 0.04764,0.0476 -0.42078,1.60541 -1.040926,3.46172 -0.620148,1.8563 -1.12754,3.41254 -1.12754,3.4583 0,0.0458 0.417892,0.16262 0.928649,0.25969 2.836174,0.53899 4.88209,2.71127 5.387152,5.71987 l 0.09589,0.57124 H 95.873888 109.95758 Z M 77.511136,48.382657 c 0,-0.081 0.612758,-0.84054 1.361684,-1.68797 0.748925,-0.84742 1.442413,-1.78538 1.541082,-2.08436 0.256887,-0.77837 0.100439,-1.87882 -0.314923,-2.21516 -0.509825,-0.41283 -1.390011,-0.35606 -1.835755,0.11842 l -0.367334,0.39101 0.378863,0.28808 c 0.310106,0.2358 0.348206,0.33763 0.209931,0.56106 -0.09291,0.15013 -0.332834,0.27297 -0.533158,0.27297 -0.777126,0 -0.417034,-1.51973 0.468609,-1.97772 0.245766,-0.12709 0.727851,-0.23107 1.071301,-0.23107 1.207067,0 1.980299,0.74349 1.980299,1.90413 0,0.82234 -0.315235,1.28981 -1.745221,2.58805 -0.715767,0.64983 -1.301393,1.24162 -1.301393,1.31511 0,0.16087 2.290485,0.17629 2.528085,0.017 0.09183,-0.0616 0.224152,-0.31757 0.294054,-0.56891 0.184438,-0.66316 0.274493,-0.0351 0.10921,0.76166 l -0.126401,0.60932 -1.859467,0.0428 c -1.12432,0.0259 -1.859466,-0.0154 -1.859466,-0.10442 z m 67.254004,8.26665 c 7.95929,-2.6506 14.50191,-4.84608 14.53918,-4.87886 0.0373,-0.0328 -0.08,-0.51411 -0.26064,-1.06962 -0.18061,-0.55552 -0.29274,-1.06771 -0.24917,-1.1382 0.0436,-0.0705 1.70676,-0.12818 3.69599,-0.12818 h 3.61677 l -0.15116,-0.91398 c -0.1,-0.60459 -0.1,-1.22337 0,-1.82797 l 0.15116,-0.91398 h -3.61677 c -1.98923,0 -3.65417,-0.0605 -3.69988,-0.13446 -0.0457,-0.0739 0.0531,-0.53025 0.2195,-1.014 0.16644,-0.48374 0.30261,-0.96592 0.30261,-1.07149 0,-0.11919 -5.47167,-2.01585 -14.43334,-5.00307 -7.93834,-2.64611 -14.51248,-4.81111 -14.60921,-4.81111 -0.0967,0 -0.39255,0.38394 -0.65739,0.85321 -0.97029,1.71926 -2.98064,3.11479 -4.81772,3.34432 l -0.82306,0.10283 v 5.99952 5.99951 h 1.11709 c 0.6144,0 1.15606,0.039 1.2037,0.0866 0.0476,0.0476 -0.42078,1.60541 -1.04092,3.46172 -0.62015,1.8563 -1.12754,3.41254 -1.12754,3.4583 0,0.0458 0.41789,0.16262 0.92865,0.25969 1.94496,0.36962 3.774,1.70479 4.61858,3.37149 0.21933,0.43284 0.44905,0.78699 0.51047,0.78699 0.0614,0 6.62382,-2.16867 14.5831,-4.81927 z m -3.47108,-0.20928 c -0.62816,-0.49411 -0.94718,-1.55132 -0.94183,-3.12114 0.005,-1.58755 0.20763,-2.29501 0.82509,-2.88657 0.58705,-0.56243 1.56832,-0.67801 2.22904,-0.26254 0.71338,0.44858 1.02676,1.25909 1.09979,2.84445 0.0781,1.69505 -0.13781,2.55991 -0.80573,3.22782 -0.4354,0.4354 -0.60759,0.50428 -1.26062,0.50428 -0.52703,0 -0.8744,-0.0929 -1.14574,-0.3063 z m 1.70841,0.007 c 0.53122,-0.28431 0.69639,-1.04506 0.69581,-3.20477 -5.8e-4,-2.18196 -0.0924,-2.54632 -0.75033,-2.9774 -0.49758,-0.32602 -1.11519,-0.13887 -1.47183,0.44601 -0.24583,0.40314 -0.28969,0.77849 -0.29018,2.48339 -5.7e-4,2.00674 0.11224,2.63012 0.56681,3.13242 0.26589,0.29381 0.82499,0.34765 1.24972,0.12035 z m -7.14867,0.003 c 0,-0.0787 0.25706,-0.16441 0.57124,-0.19041 l 0.57124,-0.0473 0.0415,-2.77759 0.0415,-2.77759 -0.68892,0.0944 c -0.46809,0.0642 -0.68891,0.039 -0.68891,-0.0786 0,-0.0952 0.19115,-0.17303 0.42478,-0.17303 0.23364,0 0.69369,-0.1371 1.02236,-0.30466 0.32867,-0.16757 0.61597,-0.30467 0.63844,-0.30467 0.0224,0 0.0594,1.42239 0.082,3.16087 l 0.0412,3.16086 0.57124,0.0473 c 0.31418,0.026 0.57124,0.11168 0.57124,0.19041 0,0.0802 -0.70322,0.14313 -1.59947,0.14313 -0.89626,0 -1.59947,-0.0629 -1.59947,-0.14313 z m -10.20615,-10.38264 c 0,-0.0925 0.55698,-0.78871 1.23773,-1.54711 0.68076,-0.75841 1.37392,-1.68677 1.54036,-2.06303 0.7981,-1.80423 -0.63685,-3.3762 -2.01973,-2.21258 l -0.48365,0.40696 0.33568,0.2532 c 0.44636,0.33669 0.35341,0.837 -0.15549,0.837 -0.3148,0 -0.38671,-0.0824 -0.42595,-0.48803 -0.17792,-1.83927 2.81079,-2.38007 3.69575,-0.66875 0.55779,1.07864 0.2588,1.74404 -1.56194,3.47606 l -1.47728,1.40529 1.41287,0.003 1.41286,0.003 0.0914,-0.45699 c 0.0503,-0.25134 0.156,-0.45699 0.23496,-0.45699 0.079,0 0.11064,0.11996 0.0704,0.26658 -0.0402,0.14661 -0.11649,0.52364 -0.1695,0.83782 l -0.0964,0.57124 h -1.82107 c -1.22704,0 -1.82106,-0.0549 -1.82106,-0.1682 z m -6.43609,12.95578 c 1.03892,-0.9495 1.97036,-1.43295 3.24678,-1.68514 0.53928,-0.10655 0.99664,-0.20228 1.01637,-0.21273 0.0197,-0.0105 -0.47534,-1.54916 -1.10012,-3.41936 -0.62479,-1.8702 -1.09959,-3.45925 -1.0551,-3.53122 0.0445,-0.072 0.59095,-0.13086 1.21437,-0.13086 h 1.13349 v -5.98621 -5.98612 l -0.96198,-0.16478 c -2.72411,-0.46662 -4.88052,-2.57341 -5.44845,-5.32309 l -0.19239,-0.93143 -3.36306,1.12372 c -1.84968,0.61805 -3.44875,1.09094 -3.55348,1.05086 -0.12737,-0.0487 -0.19041,-0.42749 -0.19041,-1.14396 v -1.07109 H 95.873888 81.790202 l -0.09573,0.57124 c -0.121996,0.72794 -0.477994,1.83306 -0.747256,2.3197 l -0.208861,0.37747 15.848768,10.56615 c 8.716817,5.81138 15.890947,10.50253 15.942507,10.42476 0.0515,-0.0778 0.32543,-0.49805 0.60861,-0.93397 0.28317,-0.43593 0.59165,-0.76765 0.68549,-0.73716 0.0938,0.0305 1.13031,1.29738 2.30325,2.81531 1.17295,1.51793 2.15729,2.76387 2.18744,2.76877 0.0302,0.005 0.43386,-0.33752 0.89715,-0.76094 z m -15.8042,-9.73177 c 0,-0.0787 0.25705,-0.16441 0.57124,-0.19041 l 0.57124,-0.0473 0.0414,-2.7617 0.0414,-2.76171 -0.72694,0.0694 c -0.54005,0.0515 -0.66819,0.0279 -0.49844,-0.0922 0.12568,-0.0889 0.3656,-0.16286 0.53316,-0.16446 0.16756,-0.002 0.52097,-0.1348 0.78534,-0.296 0.26438,-0.1612 0.52144,-0.25235 0.57124,-0.20254 0.0498,0.0498 0.0906,1.48439 0.0906,3.18795 v 3.09739 h 0.60933 c 0.33513,0 0.60932,0.0686 0.60932,0.15234 0,0.0919 -0.63471,0.15233 -1.59947,0.15233 -0.89626,0 -1.59947,-0.0629 -1.59947,-0.14314 z m 71.83255,3.95853 c 1.27297,-0.62669 2.34909,-1.70985 2.98815,-3.00776 0.47691,-0.96857 0.50684,-1.12404 0.50684,-2.63222 0,-1.48656 -0.0353,-1.67736 -0.48641,-2.62968 -1.35911,-2.86908 -4.56407,-4.27366 -7.61323,-3.3365 -1.90179,0.58451 -3.44804,2.13076 -4.03255,4.03255 -0.69068,2.24719 -0.099,4.71814 1.51664,6.33377 0.78192,0.78192 1.90639,1.43937 2.88414,1.6863 0.31454,0.0794 1.17351,0.12118 1.90886,0.0928 1.13485,-0.0438 1.48678,-0.12535 2.32756,-0.53926 z m -4.95328,-2.66559 c -0.25096,-0.30237 -0.13954,-0.75377 0.20226,-0.8196 0.4291,-0.0826 0.61243,0.18868 0.3981,0.58915 -0.18073,0.33769 -0.17257,0.34152 0.55211,0.25984 0.5404,-0.0609 0.82641,-0.18856 1.07808,-0.48115 0.32042,-0.37252 0.75263,-1.56782 0.61623,-1.70423 -0.0338,-0.0338 -0.27328,0.0442 -0.53217,0.17337 -0.96109,0.47946 -1.8637,-0.19982 -1.8637,-1.40259 0,-1.53033 1.5848,-3.2025 2.651,-2.79713 0.2013,0.0765 0.41013,0.21053 0.46404,0.29777 0.0666,0.10771 0.1913,0.10036 0.3887,-0.0229 0.15987,-0.0998 0.34228,-0.12992 0.40534,-0.0669 0.14524,0.14524 -0.97542,4.78095 -1.26935,5.25072 -0.37942,0.60642 -1.11141,0.94361 -2.04985,0.94423 -0.56412,3e-4 -0.92,-0.0751 -1.04079,-0.22061 z m 2.49982,-2.30134 c 0.39627,-0.25965 0.70134,-0.92459 0.99293,-2.16426 0.16371,-0.69598 0.15588,-0.85246 -0.0591,-1.18056 -0.68135,-1.03989 -1.83741,0.0358 -2.22288,2.06843 -0.25,1.31829 0.3374,1.89993 1.28904,1.27639 z M 76.977978,37.301007 c 2.417469,-0.73096 4.161824,-2.97686 4.310796,-5.55024 0.309859,-5.35264 -5.660576,-8.59819 -9.970569,-5.42004 -0.962832,0.70998 -1.521123,1.42094 -2.053648,2.61524 -0.470996,1.05631 -0.571251,3.08663 -0.207904,4.21036 1.100248,3.40275 4.497039,5.18006 7.921325,4.14468 z m -3.62973,-4.02021 c -0.498424,-0.39206 -0.653128,-1.1709 -0.407116,-2.04957 0.404828,-1.44591 1.947609,-2.56504 2.78219,-2.0182 0.207372,0.13588 0.531515,0.20193 0.768557,0.15661 0.225465,-0.0431 0.40856,-0.0189 0.406881,0.0537 -0.0017,0.0726 -0.171678,0.78323 -0.377774,1.57915 -0.408052,1.57588 -0.467826,2.21321 -0.221824,2.36525 0.256831,0.15873 0.587135,-0.22139 0.780116,-0.89777 0.113235,-0.39687 0.20239,-0.53035 0.241155,-0.36103 0.03383,0.14775 -0.06366,0.52477 -0.216641,0.83782 -0.339722,0.6952 -0.924357,0.83696 -1.417585,0.34373 l -0.320078,-0.32008 -0.395181,0.31086 c -0.503788,0.39628 -1.118585,0.39612 -1.6227,-4.6e-4 z m 1.617471,-0.29044 c 0.426739,-0.37468 0.558319,-0.65306 0.791716,-1.67495 0.339135,-1.48487 0.208818,-1.98861 -0.514453,-1.98861 -0.810578,0 -1.692444,1.56741 -1.692444,3.00811 0,1.14768 0.559452,1.40679 1.415181,0.65545 z m 50.758091,4.31065 c 2.41747,-0.73096 4.16182,-2.97686 4.31079,-5.55024 0.30986,-5.35264 -5.66057,-8.59819 -9.97056,-5.42004 -0.96283,0.70998 -1.52113,1.42094 -2.05365,2.61524 -0.47099,1.05631 -0.57125,3.08663 -0.2079,4.21036 1.10024,3.40275 4.49703,5.18006 7.92132,4.14468 z m -3.54141,-2.57199 c -0.18375,-0.1287 -0.41118,-0.49128 -0.50539,-0.80575 -0.54991,-1.83542 1.87934,-4.44225 2.99294,-3.21173 0.28668,0.31678 0.28985,0.31183 0.60962,-0.95206 0.1768,-0.69878 0.29362,-1.32191 0.25961,-1.38475 -0.034,-0.0628 -0.1949,-0.11424 -0.35752,-0.11424 -0.16261,0 -0.29567,-0.0608 -0.29567,-0.13504 0,-0.12824 1.34293,-0.40079 1.44953,-0.29418 0.0279,0.0279 -0.28691,1.414 -0.69944,3.08033 -0.77849,3.14446 -0.85841,3.66185 -0.59108,3.82706 0.24968,0.15432 0.58508,-0.21481 0.77689,-0.85502 0.0966,-0.32245 0.22992,-0.55272 0.29627,-0.51172 0.15421,0.0953 -0.13799,0.97584 -0.43953,1.32454 -0.31615,0.36558 -0.73897,0.33409 -1.15941,-0.0864 l -0.35292,-0.35293 -0.4103,0.35293 c -0.47389,0.40762 -1.09446,0.45452 -1.5736,0.11891 z m 1.66565,-0.50502 c 0.50102,-0.49398 1.10996,-2.65004 0.87333,-3.09218 -0.58971,-1.1019 -1.7297,-0.3668 -2.20598,1.42247 -0.28445,1.06864 -0.27438,1.63811 0.035,1.98 0.31313,0.34599 0.7341,0.24534 1.29762,-0.31029 z m 25.18997,62.29355 c 0.0796,-0.0767 0.31609,-0.16237 0.52555,-0.19041 0.3294,-0.0441 0.38715,-0.1384 0.42767,-0.69839 l 0.0468,-0.6474 h -1.37974 c -0.75886,0 -1.37973,-0.044 -1.37973,-0.0979 0,-0.24245 3.25813,-5.06273 3.37371,-4.99129 0.0714,0.0442 0.12989,1.13873 0.12989,2.43241 v 2.35213 h 0.44801 c 0.24639,0 0.49036,0.0686 0.54215,0.15234 0.0561,0.0908 -0.12828,0.15233 -0.45677,0.15233 h -0.5509 l 0.0469,0.6474 c 0.0419,0.5793 0.0909,0.65248 0.46575,0.69561 0.2304,0.0265 0.41891,0.11219 0.41891,0.19041 0,0.0782 -0.63065,0.14222 -1.40144,0.14222 -0.85171,0 -1.34468,-0.0547 -1.25673,-0.13944 z m 0.98254,-3.59267 c 0,-0.96349 -0.0249,-1.7518 -0.0553,-1.7518 -0.0823,0 -2.2296,3.27057 -2.2296,3.39596 0,0.0592 0.51411,0.10764 1.14248,0.10764 h 1.14248 z M 43.754077,86.085857 c -0.702385,-0.31334 -1.094242,-0.97941 -1.296418,-2.20364 -0.193073,-1.16911 -0.04385,-2.65798 0.348076,-3.473 0.25041,-0.52072 1.111049,-1.11794 1.611056,-1.11794 0.681308,0 1.408506,0.46763 1.750012,1.12536 0.396163,0.763 0.550201,3.01093 0.276018,4.02804 -0.365702,1.35663 -1.615953,2.11976 -2.688744,1.64118 z m 1.299736,-0.23854 c 0.532786,-0.28514 0.696367,-1.04428 0.696367,-3.23168 0,-1.87848 -0.03147,-2.12567 -0.319945,-2.51345 -0.575454,-0.77355 -1.622057,-0.66507 -1.985945,0.20583 -0.177138,0.42395 -0.2182,1.04424 -0.180377,2.72473 0.04636,2.05962 0.0687,2.19678 0.418272,2.56845 0.382667,0.40685 0.898397,0.49939 1.371628,0.24612 z m -7.148666,0.003 c 0,-0.0787 0.257058,-0.16441 0.57124,-0.19042 l 0.571241,-0.0473 0.04145,-2.7617 0.04145,-2.7617 -0.711678,0.0802 c -0.512685,0.0578 -0.681485,0.0314 -0.603697,-0.0945 0.05939,-0.0961 0.292442,-0.17497 0.517898,-0.17528 0.225456,-3.1e-4 0.63436,-0.13742 0.908676,-0.30467 0.274315,-0.16724 0.529983,-0.30409 0.568149,-0.30409 0.03817,0 0.08792,1.42239 0.110566,3.16086 l 0.04117,3.16086 0.571239,0.0473 c 0.314183,0.026 0.571241,0.11169 0.571241,0.19042 0,0.0802 -0.703215,0.14313 -1.599473,0.14313 -0.896258,0 -1.599472,-0.0629 -1.599472,-0.14313 z m 9.776886,-39.46757 c -0.781991,-0.47676 -1.159418,-1.46748 -1.158889,-3.04198 3.04e-4,-1.03008 0.06747,-1.42234 0.328332,-1.91856 0.663208,-1.2616 1.887735,-1.95444 2.824678,-1.59822 0.754267,0.28678 0.962874,1.38415 0.26312,1.38415 -0.43992,0 -0.576125,-0.45014 -0.215906,-0.71353 0.250321,-0.18304 0.259029,-0.23244 0.06283,-0.35647 -0.62476,-0.39497 -1.659485,0.028 -2.04237,0.83488 -0.140922,0.29697 -0.297386,0.8875 -0.347696,1.31229 l -0.09147,0.77235 0.486553,-0.48656 c 0.418728,-0.41873 0.562137,-0.47428 1.028756,-0.39856 1.123819,0.18237 1.780252,1.00864 1.784704,2.24648 0.0032,0.87175 -0.413272,1.61132 -1.120017,1.98921 -0.68264,0.36501 -1.173521,0.35807 -1.802626,-0.0255 z m 1.641192,-0.36904 c 0.490579,-0.52219 0.607341,-2.20411 0.206709,-2.97761 -0.228284,-0.44074 -0.372132,-0.54117 -0.829917,-0.57939 -0.448518,-0.0374 -0.614236,0.0306 -0.871899,0.3582 -1.244904,1.58264 0.169836,4.60949 1.495107,3.1988 z m 101.820355,-6.1622 c -0.50956,-0.23294 -0.68017,-0.42203 -0.89989,-0.99736 -0.25367,-0.66422 -0.25469,-0.72636 -0.0158,-0.96527 0.19673,-0.19673 0.3159,-0.21722 0.51907,-0.0893 0.39495,0.24871 0.42165,0.67372 0.0485,0.77131 -0.4117,0.10766 -0.40319,0.37189 0.0248,0.77141 0.80232,0.74889 1.91959,0.49639 2.25133,-0.50881 0.25349,-0.76806 0.1254,-2.25632 -0.22778,-2.64658 -0.39924,-0.44116 -1.16497,-0.4043 -1.74528,0.084 l -0.46868,0.39437 v -1.77561 -1.77562 l 0.34274,0.12452 c 0.44946,0.16328 1.92079,0.15974 2.37915,-0.006 0.52652,-0.19007 0.3533,0.19568 -0.28079,0.62531 -0.36858,0.24973 -0.72709,0.34274 -1.32115,0.34274 l -0.81529,10e-6 v 0.89511 0.8951 l 0.65642,-0.23605 c 0.61322,-0.2205 0.69531,-0.21675 1.2469,0.0569 0.87488,0.43414 1.20858,0.97771 1.20858,1.96866 0,1.67049 -1.4757,2.72322 -2.90286,2.07081 z m -51.849151,-9.30652 c 0,-0.0838 0.205648,-0.15234 0.456993,-0.15234 0.440068,0 0.456988,-0.0254 0.456988,-0.68548 v -0.68549 h -1.294808 c -0.914595,0 -1.294813,-0.0543 -1.294813,-0.18513 0,-0.20299 2.632331,-4.27797 3.075721,-4.76139 0.26688,-0.29097 0.27556,-0.22259 0.27556,2.17071 v 2.47115 h 0.53316 c 0.67125,0 0.70301,0.26894 0.0393,0.33309 -0.53267,0.0515 -0.67147,0.31812 -0.50691,0.97376 0.072,0.28698 0.19328,0.36878 0.54664,0.36878 0.24975,0 0.45409,0.0686 0.45409,0.15234 0,0.0903 -0.55854,0.15233 -1.37097,0.15233 -0.812433,0 -1.370979,-0.0621 -1.370979,-0.15233 z m 1.066311,-3.65594 c 0,-1.00538 -0.0275,-1.82797 -0.0611,-1.82797 -0.0491,0 -1.829739,2.70519 -2.281106,3.46552 -0.08663,0.14593 0.173752,0.19042 1.114595,0.19042 h 1.227631 z"
       id="path75"
       inkscape:connector-curvature="0" />
    <path
       style="fill:none;fill-rule:evenodd;stroke:#0cff00;stroke-width:1;stroke-linecap:butt;stroke-linejoin:miter;stroke-miterlimit:4;stroke-dasharray:none;stroke-opacity:1"
       d="m 19.465774,57.741071 53.861607,-36.663691 51.782739,-0.377976 57.26339,21.166667 -0.18899,39.49851"
       id="path81"
       inkscape:connector-curvature="0" />
    <text
       xml:space="preserve"
       style="font-style:normal;font-weight:normal;font-size:10.58333302px;line-height:6.61458302px;font-family:sans-serif;letter-spacing:0px;word-spacing:0px;fill:#0cff00;fill-opacity:0.83529412;stroke:none;stroke-width:0.26458332px;stroke-linecap:butt;stroke-linejoin:miter;stroke-opacity:1"
       x="22.01013"
       y="50.281834"
       id="text4560"><tspan
         sodipodi:role="line"
         id="tspan4558"
         x="22.01013"
         y="50.281834"
         style="fill:#0cff00;fill-opacity:0.83529412;stroke-width:0.26458332px">4</tspan></text>
    <path
       style="fill:none;fill-rule:evenodd;stroke:#a400ff;stroke-width:1;stroke-linecap:butt;stroke-linejoin:miter;stroke-miterlimit:4;stroke-dasharray:none;stroke-opacity:1"
       d="m 19.792052,74.339412 53.745659,32.418018 52.210069,-0.34124 50.16261,-16.720875"
       id="path4562"
       inkscape:connector-curvature="0" />
    <text
       xml:space="preserve"
       style="font-style:normal;font-weight:normal;font-size:10.58333302px;line-height:6.61458349px;font-family:sans-serif;letter-spacing:0px;word-spacing:0px;fill:#a400ff;fill-opacity:1;stroke:none;stroke-width:0.26458332px;stroke-linecap:butt;stroke-linejoin:miter;stroke-opacity:1"
       x="36.768005"
       y="101.74277"
       id="text4560-3"><tspan
         sodipodi:role="line"
         id="tspan4558-6"
         x="36.768005"
         y="101.74277"
         style="fill:#a400ff;fill-opacity:1;stroke-width:0.26458332px">4</tspan></text>
    <path
       style="fill:none;fill-rule:evenodd;stroke:#0002ff;stroke-width:1;stroke-linecap:butt;stroke-linejoin:miter;stroke-miterlimit:4;stroke-dasharray:none;stroke-opacity:1"
       d="m 23.068461,59.631388 52.380688,-34.636091 0.682485,35.489195 47.944546,-1.876832 49.76861,-11.382997 4.14767,31.857534"
       id="path4582"
       inkscape:connector-curvature="0" />
    <path
       style="fill:none;fill-rule:evenodd;stroke:#00e9ff;stroke-width:1;stroke-linecap:butt;stroke-linejoin:miter;stroke-miterlimit:4;stroke-dasharray:none;stroke-opacity:1"
       d="m 25.989742,72.625991 46.484071,28.363679 1.315566,-31.518619 47.724421,-0.74727 47.18532,-15.493609 2.48962,28.554619"
       id="path4584"
       inkscape:connector-curvature="0" />
    <text
       xml:space="preserve"
       style="font-style:normal;font-weight:normal;font-size:10.58333302px;line-height:6.61458302px;font-family:sans-serif;letter-spacing:0px;word-spacing:0px;fill:#00e9ff;fill-opacity:1;stroke:none;stroke-width:0.26458332px;stroke-linecap:butt;stroke-linejoin:miter;stroke-opacity:1"
       x="47.262054"
       y="79.799278"
       id="text4598"><tspan
         sodipodi:role="line"
         id="tspan4596"
         x="47.262054"
         y="79.799278"
         style="fill:#00e9ff;fill-opacity:1;stroke-width:0.26458332px">2</tspan><tspan
         sodipodi:role="line"
         x="47.262054"
         y="86.413864"
         style="fill:#00e9ff;fill-opacity:1;stroke-width:0.26458332px"
         id="tspan4600" /></text>
    <text
       xml:space="preserve"
       style="font-style:normal;font-weight:normal;font-size:10.58333302px;line-height:6.61458302px;font-family:sans-serif;letter-spacing:0px;word-spacing:0px;fill:#0002ff;fill-opacity:1;stroke:none;stroke-width:0.26458332px;stroke-linecap:butt;stroke-linejoin:miter;stroke-opacity:1"
       x="39.252174"
       y="57.054668"
       id="text4604"><tspan
         sodipodi:role="line"
         id="tspan4602"
         x="39.252174"
         y="57.054668"
         style="fill:#0002ff;fill-opacity:1;stroke-width:0.26458332px">2</tspan><tspan
         sodipodi:role="line"
         x="39.252174"
         y="63.66925"
         style="fill:#0002ff;fill-opacity:1;stroke-width:0.26458332px"
         id="tspan4606" /></text>
    <path
       style="fill:none;fill-rule:evenodd;stroke:#ffb400;stroke-width:1;stroke-linecap:butt;stroke-linejoin:miter;stroke-miterlimit:4;stroke-dasharray:none;stroke-opacity:1"
       d="m 25.264965,65.993525 50.111915,0.831691 49.18494,-3.544689 45.72481,-12.696221 2.48962,28.55465"
       id="path4608"
       inkscape:connector-curvature="0" />
    <text
       xml:space="preserve"
       style="font-style:normal;font-weight:normal;font-size:10.58333302px;line-height:6.61458302px;font-family:sans-serif;letter-spacing:0px;word-spacing:0px;fill:#ffb400;fill-opacity:1;stroke:none;stroke-width:0.26458332px;stroke-linecap:butt;stroke-linejoin:miter;stroke-opacity:1"
       x="61.211746"
       y="64.646782"
       id="text4612"><tspan
         sodipodi:role="line"
         id="tspan4610"
         x="61.211746"
         y="64.646782"
         style="fill:#ffb400;fill-opacity:1;stroke-width:0.26458332px">1</tspan><tspan
         sodipodi:role="line"
         x="61.211746"
         y="71.261368"
         style="fill:#ffb400;fill-opacity:1;stroke-width:0.26458332px"
         id="tspan4614" /></text>
  </g>
</svg>
